<svg width="956.0" height="2016.0" viewBox="0 0 956.0 2016.0" class="keymap" xmlns="http://www.w3.org/2000/svg" xmlns:xlink="http://www.w3.org/1999/xlink">
<style>/* inherit to force styles through use tags*/
svg path {
    fill: inherit;
}
/* font and background color specifications */
svg.keymap {
    font-family: SFMono-Regular,Consolas,Liberation Mono,Menlo,monospace;
    font-size: 14px;
    font-kerning: normal;
    text-rendering: optimizeLegibility;
    fill: #24292e;
}

/* default key styling */
rect.key {
    fill: #f6f8fa;
    stroke: #c9cccf;
    stroke-width: 1;
}

/* color accent for combo boxes */
rect.combo {
    fill: #cdf;
}

/* color accent for held keys */
rect.held, rect.combo.held {
    fill: #fdd;
}

/* color accent for ghost (optional) keys */
rect.ghost, rect.combo.ghost {
    stroke-dasharray: 4, 4;
    stroke-width: 2;
}

text {
    text-anchor: middle;
    dominant-baseline: middle;
}

/* styling for layer labels */
text.label {
    font-weight: bold;
    text-anchor: start;
    stroke: white;
    stroke-width: 2;
    paint-order: stroke;
}

/* styling for combo tap, and key hold/shifted label text */
text.combo, text.hold, text.shifted {
    font-size: 11px;
}

text.hold {
    text-anchor: middle;
    dominant-baseline: auto;
}

text.shifted {
    text-anchor: middle;
    dominant-baseline: hanging;
}

/* styling for hold/shifted label text in combo box */
text.combo.hold, text.combo.shifted {
    font-size: 8px;
}

/* lighter symbol for transparent keys */
text.trans {
    fill: #7b7e81;
}

/* styling for combo dendrons */
path.combo {
    stroke-width: 1;
    stroke: gray;
    fill: none;
}

/* Start Tabler Icons Cleanup */
/* cannot use height/width with glyphs */
.icon-tabler > path {
    fill: inherit;
    stroke: inherit;
}
/* hide tabler's default box */
.icon-tabler > path[stroke="none"][fill="none"] {
    visibility: collapse;
}
/* End Tabler Icons Cleanup */
</style>
<g class="layer-Base">
<text x="30.0" y="28.0" class="label">Base:</text>
<rect rx="6.0" ry="6.0" x="32.0" y="58.0" width="52.0" height="52.0" class="key"/>
<text x="58.0" y="84.0" class="tap">↻</text>
<rect rx="6.0" ry="6.0" x="88.0" y="58.0" width="52.0" height="52.0" class="key"/>
<text x="114.0" y="84.0" class="tap">W</text>
<rect rx="6.0" ry="6.0" x="144.0" y="58.0" width="52.0" height="52.0" class="key"/>
<text x="170.0" y="84.0" class="tap">M</text>
<rect rx="6.0" ry="6.0" x="200.0" y="58.0" width="52.0" height="52.0" class="key"/>
<text x="226.0" y="84.0" class="tap">P</text>
<rect rx="6.0" ry="6.0" x="256.0" y="58.0" width="52.0" height="52.0" class="key"/>
<text x="282.0" y="84.0" class="tap">Q</text>
<rect rx="6.0" ry="6.0" x="648.0" y="58.0" width="52.0" height="52.0" class="key"/>
<text x="674.0" y="84.0" class="tap">Z</text>
<rect rx="6.0" ry="6.0" x="704.0" y="58.0" width="52.0" height="52.0" class="key"/>
<text x="730.0" y="84.0" class="tap">K</text>
<rect rx="6.0" ry="6.0" x="760.0" y="58.0" width="52.0" height="52.0" class="key"/>
<text x="786.0" y="84.0" class="tap">,</text>
<text x="786.0" y="60.0" class="shifted">&lt;</text>
<rect rx="6.0" ry="6.0" x="816.0" y="58.0" width="52.0" height="52.0" class="key"/>
<text x="842.0" y="84.0" class="tap">.</text>
<text x="842.0" y="60.0" class="shifted">&gt;</text>
<rect rx="6.0" ry="6.0" x="872.0" y="58.0" width="52.0" height="52.0" class="key"/>
<text x="898.0" y="84.0" class="tap">;</text>
<text x="898.0" y="60.0" class="shifted">:</text>
<rect rx="6.0" ry="6.0" x="32.0" y="114.0" width="52.0" height="52.0" class="key"/>
<text x="58.0" y="140.0" class="tap">R</text>
<text x="58.0" y="164.0" class="hold">⌘</text>
<rect rx="6.0" ry="6.0" x="88.0" y="114.0" width="52.0" height="52.0" class="key"/>
<text x="114.0" y="140.0" class="tap">S</text>
<text x="114.0" y="164.0" class="hold">⌥</text>
<rect rx="6.0" ry="6.0" x="144.0" y="114.0" width="52.0" height="52.0" class="key"/>
<text x="170.0" y="140.0" class="tap">N</text>
<text x="170.0" y="164.0" class="hold">⌃</text>
<rect rx="6.0" ry="6.0" x="200.0" y="114.0" width="52.0" height="52.0" class="key"/>
<text x="226.0" y="140.0" class="tap">T</text>
<text x="226.0" y="164.0" class="hold">⇧</text>
<rect rx="6.0" ry="6.0" x="256.0" y="114.0" width="52.0" height="52.0" class="key"/>
<text x="282.0" y="140.0" class="tap">G</text>
<rect rx="6.0" ry="6.0" x="648.0" y="114.0" width="52.0" height="52.0" class="key"/>
<text x="674.0" y="140.0" class="tap">V</text>
<rect rx="6.0" ry="6.0" x="704.0" y="114.0" width="52.0" height="52.0" class="key"/>
<text x="730.0" y="140.0" class="tap">H</text>
<text x="730.0" y="164.0" class="hold">⇧</text>
<rect rx="6.0" ry="6.0" x="760.0" y="114.0" width="52.0" height="52.0" class="key"/>
<text x="786.0" y="140.0" class="tap">A</text>
<text x="786.0" y="164.0" class="hold">⌃</text>
<rect rx="6.0" ry="6.0" x="816.0" y="114.0" width="52.0" height="52.0" class="key"/>
<text x="842.0" y="140.0" class="tap">I</text>
<text x="842.0" y="164.0" class="hold">⌥</text>
<rect rx="6.0" ry="6.0" x="872.0" y="114.0" width="52.0" height="52.0" class="key"/>
<text x="898.0" y="140.0" class="tap">O</text>
<text x="898.0" y="164.0" class="hold">⌘</text>
<rect rx="6.0" ry="6.0" x="32.0" y="170.0" width="52.0" height="52.0" class="key"/>
<text x="58.0" y="196.0" class="tap" style="font-size: 88%">
<tspan x="58.0" dy="-1.2em">LT(LAYER</tspan><tspan x="58.0" dy="1.2em">POINTER,</tspan><tspan x="58.0" dy="1.2em">X)</tspan></text>
<rect rx="6.0" ry="6.0" x="88.0" y="170.0" width="52.0" height="52.0" class="key"/>
<text x="114.0" y="196.0" class="tap">C</text>
<rect rx="6.0" ry="6.0" x="144.0" y="170.0" width="52.0" height="52.0" class="key"/>
<text x="170.0" y="196.0" class="tap">F</text>
<rect rx="6.0" ry="6.0" x="200.0" y="170.0" width="52.0" height="52.0" class="key"/>
<text x="226.0" y="196.0" class="tap">D</text>
<rect rx="6.0" ry="6.0" x="256.0" y="170.0" width="52.0" height="52.0" class="key"/>
<text x="282.0" y="196.0" class="tap">B</text>
<rect rx="6.0" ry="6.0" x="648.0" y="170.0" width="52.0" height="52.0" class="key"/>
<text x="674.0" y="196.0" class="tap">J</text>
<rect rx="6.0" ry="6.0" x="704.0" y="170.0" width="52.0" height="52.0" class="key"/>
<text x="730.0" y="196.0" class="tap">L</text>
<rect rx="6.0" ry="6.0" x="760.0" y="170.0" width="52.0" height="52.0" class="key"/>
<text x="786.0" y="196.0" class="tap">U</text>
<rect rx="6.0" ry="6.0" x="816.0" y="170.0" width="52.0" height="52.0" class="key"/>
<text x="842.0" y="196.0" class="tap">Y</text>
<rect rx="6.0" ry="6.0" x="872.0" y="170.0" width="52.0" height="52.0" class="key"/>
<text x="898.0" y="196.0" class="tap" style="font-size: 88%">
<tspan x="898.0" dy="-1.2em">LT(LAYER</tspan><tspan x="898.0" dy="1.2em">POINTER,</tspan><tspan x="898.0" dy="1.2em">QUOT)</tspan></text>
<rect rx="6.0" ry="6.0" x="256.0" y="226.0" width="52.0" height="52.0" class="key"/>
<text x="282.0" y="252.0" class="tap" style="font-size: 88%">
<tspan x="282.0" dy="-1.2em">LT(LAYER</tspan><tspan x="282.0" dy="1.2em">MEDIA,</tspan><tspan x="282.0" dy="1.2em">ESC)</tspan></text>
<rect rx="6.0" ry="6.0" x="312.0" y="226.0" width="52.0" height="52.0" class="key"/>
<text x="338.0" y="252.0" class="tap" style="font-size: 64%">
<tspan x="338.0" dy="-1.2em">LT(LAYER</tspan><tspan x="338.0" dy="1.2em">NAVIGATION,</tspan><tspan x="338.0" dy="1.2em">SPC)</tspan></text>
<rect rx="6.0" ry="6.0" x="368.0" y="226.0" width="52.0" height="52.0" class="key"/>
<text x="394.0" y="252.0" class="tap" style="font-size: 78%">
<tspan x="394.0" dy="-1.2em">LT(LAYER</tspan><tspan x="394.0" dy="1.2em">FUNCTION,</tspan><tspan x="394.0" dy="1.2em">BSPC)</tspan></text>
<rect rx="6.0" ry="6.0" x="536.0" y="226.0" width="52.0" height="52.0" class="key"/>
<text x="562.0" y="252.0" class="tap" style="font-size: 88%">
<tspan x="562.0" dy="-1.2em">LT(LAYER</tspan><tspan x="562.0" dy="1.2em">SYMBOLS,</tspan><tspan x="562.0" dy="1.2em">ENT)</tspan></text>
<rect rx="6.0" ry="6.0" x="592.0" y="226.0" width="52.0" height="52.0" class="key"/>
<text x="618.0" y="252.0" class="tap" style="font-size: 88%">
<tspan x="618.0" dy="-1.2em">LT(LAYER</tspan><tspan x="618.0" dy="1.2em">NUMERAL,</tspan><tspan x="618.0" dy="1.2em">E)</tspan></text>
<rect rx="6.0" ry="6.0" x="128.0" y="71.0" width="28.0" height="26.0" class="combo"/>
<text x="142.0" y="84.0" class="combo tap">?</text>
<rect rx="6.0" ry="6.0" x="184.0" y="71.0" width="28.0" height="26.0" class="combo"/>
<text x="198.0" y="84.0" class="combo tap">Q</text>
<rect rx="6.0" ry="6.0" x="744.0" y="71.0" width="28.0" height="26.0" class="combo"/>
<text x="758.0" y="84.0" class="combo tap">Z</text>
<rect rx="6.0" ry="6.0" x="184.0" y="183.0" width="28.0" height="26.0" class="combo"/>
<text x="198.0" y="196.0" class="combo tap">B</text>
<rect rx="6.0" ry="6.0" x="128.0" y="183.0" width="28.0" height="26.0" class="combo"/>
<text x="142.0" y="196.0" class="combo tap">X</text>
<rect rx="6.0" ry="6.0" x="744.0" y="183.0" width="28.0" height="26.0" class="combo"/>
<text x="758.0" y="196.0" class="combo tap">J</text>
</g>
<g class="layer-Cursor">
<text x="30.0" y="308.0" class="label">Cursor:</text>
<rect rx="6.0" ry="6.0" x="32.0" y="338.0" width="52.0" height="52.0" class="key"/>
<rect rx="6.0" ry="6.0" x="88.0" y="338.0" width="52.0" height="52.0" class="key"/>
<rect rx="6.0" ry="6.0" x="144.0" y="338.0" width="52.0" height="52.0" class="key"/>
<rect rx="6.0" ry="6.0" x="200.0" y="338.0" width="52.0" height="52.0" class="key"/>
<rect rx="6.0" ry="6.0" x="256.0" y="338.0" width="52.0" height="52.0" class="key"/>
<rect rx="6.0" ry="6.0" x="648.0" y="338.0" width="52.0" height="52.0" class="key"/>
<rect rx="6.0" ry="6.0" x="704.0" y="338.0" width="52.0" height="52.0" class="key"/>
<rect rx="6.0" ry="6.0" x="760.0" y="338.0" width="52.0" height="52.0" class="key"/>
<rect rx="6.0" ry="6.0" x="816.0" y="338.0" width="52.0" height="52.0" class="key"/>
<rect rx="6.0" ry="6.0" x="872.0" y="338.0" width="52.0" height="52.0" class="key"/>
<rect rx="6.0" ry="6.0" x="32.0" y="394.0" width="52.0" height="52.0" class="key"/>
<text x="58.0" y="420.0" class="tap">⌘</text>
<rect rx="6.0" ry="6.0" x="88.0" y="394.0" width="52.0" height="52.0" class="key"/>
<text x="114.0" y="420.0" class="tap">⌥</text>
<rect rx="6.0" ry="6.0" x="144.0" y="394.0" width="52.0" height="52.0" class="key"/>
<text x="170.0" y="420.0" class="tap">⌃</text>
<rect rx="6.0" ry="6.0" x="200.0" y="394.0" width="52.0" height="52.0" class="key"/>
<text x="226.0" y="420.0" class="tap">⇧</text>
<rect rx="6.0" ry="6.0" x="256.0" y="394.0" width="52.0" height="52.0" class="key"/>
<rect rx="6.0" ry="6.0" x="648.0" y="394.0" width="52.0" height="52.0" class="key"/>
<rect rx="6.0" ry="6.0" x="704.0" y="394.0" width="52.0" height="52.0" class="key"/>
<text x="730.0" y="420.0" class="tap">⇧</text>
<rect rx="6.0" ry="6.0" x="760.0" y="394.0" width="52.0" height="52.0" class="key"/>
<text x="786.0" y="420.0" class="tap">⌃</text>
<rect rx="6.0" ry="6.0" x="816.0" y="394.0" width="52.0" height="52.0" class="key"/>
<text x="842.0" y="420.0" class="tap">⌥</text>
<rect rx="6.0" ry="6.0" x="872.0" y="394.0" width="52.0" height="52.0" class="key"/>
<text x="898.0" y="420.0" class="tap">⌘</text>
<rect rx="6.0" ry="6.0" x="32.0" y="450.0" width="52.0" height="52.0" class="trans key"/>
<text x="58.0" y="476.0" class="trans tap">▽</text>
<rect rx="6.0" ry="6.0" x="88.0" y="450.0" width="52.0" height="52.0" class="key"/>
<rect rx="6.0" ry="6.0" x="144.0" y="450.0" width="52.0" height="52.0" class="key"/>
<rect rx="6.0" ry="6.0" x="200.0" y="450.0" width="52.0" height="52.0" class="key"/>
<text x="226.0" y="476.0" class="tap">
<tspan x="226.0" dy="-0.6em">EE</tspan><tspan x="226.0" dy="1.2em">CLR</tspan></text>
<rect rx="6.0" ry="6.0" x="256.0" y="450.0" width="52.0" height="52.0" class="key"/>
<text x="282.0" y="476.0" class="tap">
<tspan x="282.0" dy="-0.6em">QK</tspan><tspan x="282.0" dy="1.2em">BOOT</tspan></text>
<rect rx="6.0" ry="6.0" x="648.0" y="450.0" width="52.0" height="52.0" class="key"/>
<text x="674.0" y="476.0" class="tap">
<tspan x="674.0" dy="-0.6em">QK</tspan><tspan x="674.0" dy="1.2em">BOOT</tspan></text>
<rect rx="6.0" ry="6.0" x="704.0" y="450.0" width="52.0" height="52.0" class="key"/>
<text x="730.0" y="476.0" class="tap">
<tspan x="730.0" dy="-0.6em">EE</tspan><tspan x="730.0" dy="1.2em">CLR</tspan></text>
<rect rx="6.0" ry="6.0" x="760.0" y="450.0" width="52.0" height="52.0" class="key"/>
<rect rx="6.0" ry="6.0" x="816.0" y="450.0" width="52.0" height="52.0" class="key"/>
<rect rx="6.0" ry="6.0" x="872.0" y="450.0" width="52.0" height="52.0" class="trans key"/>
<text x="898.0" y="476.0" class="trans tap">▽</text>
<rect rx="6.0" ry="6.0" x="256.0" y="506.0" width="52.0" height="52.0" class="key"/>
<text x="282.0" y="532.0" class="tap">BTN2</text>
<rect rx="6.0" ry="6.0" x="312.0" y="506.0" width="52.0" height="52.0" class="key"/>
<text x="338.0" y="532.0" class="tap">BTN1</text>
<rect rx="6.0" ry="6.0" x="368.0" y="506.0" width="52.0" height="52.0" class="key"/>
<text x="394.0" y="532.0" class="tap">BTN3</text>
<rect rx="6.0" ry="6.0" x="536.0" y="506.0" width="52.0" height="52.0" class="key"/>
<text x="562.0" y="532.0" class="tap">BTN3</text>
<rect rx="6.0" ry="6.0" x="592.0" y="506.0" width="52.0" height="52.0" class="key"/>
<text x="618.0" y="532.0" class="tap">BTN1</text>
</g>
<g class="layer-Fun">
<text x="30.0" y="588.0" class="label">Fun:</text>
<rect rx="6.0" ry="6.0" x="32.0" y="618.0" width="52.0" height="52.0" class="key"/>
<rect rx="6.0" ry="6.0" x="88.0" y="618.0" width="52.0" height="52.0" class="key"/>
<rect rx="6.0" ry="6.0" x="144.0" y="618.0" width="52.0" height="52.0" class="key"/>
<rect rx="6.0" ry="6.0" x="200.0" y="618.0" width="52.0" height="52.0" class="key"/>
<rect rx="6.0" ry="6.0" x="256.0" y="618.0" width="52.0" height="52.0" class="key"/>
<rect rx="6.0" ry="6.0" x="648.0" y="618.0" width="52.0" height="52.0" class="key"/>
<rect rx="6.0" ry="6.0" x="704.0" y="618.0" width="52.0" height="52.0" class="key"/>
<rect rx="6.0" ry="6.0" x="760.0" y="618.0" width="52.0" height="52.0" class="key"/>
<text x="786.0" y="644.0" class="tap">{</text>
<rect rx="6.0" ry="6.0" x="816.0" y="618.0" width="52.0" height="52.0" class="key"/>
<text x="842.0" y="644.0" class="tap">}</text>
<rect rx="6.0" ry="6.0" x="872.0" y="618.0" width="52.0" height="52.0" class="key"/>
<text x="898.0" y="644.0" class="tap">\</text>
<rect rx="6.0" ry="6.0" x="32.0" y="674.0" width="52.0" height="52.0" class="key"/>
<text x="58.0" y="700.0" class="tap">⌘</text>
<rect rx="6.0" ry="6.0" x="88.0" y="674.0" width="52.0" height="52.0" class="key"/>
<text x="114.0" y="700.0" class="tap">⌥</text>
<rect rx="6.0" ry="6.0" x="144.0" y="674.0" width="52.0" height="52.0" class="key"/>
<text x="170.0" y="700.0" class="tap">⌃</text>
<rect rx="6.0" ry="6.0" x="200.0" y="674.0" width="52.0" height="52.0" class="key"/>
<text x="226.0" y="700.0" class="tap">⇧</text>
<rect rx="6.0" ry="6.0" x="256.0" y="674.0" width="52.0" height="52.0" class="key"/>
<rect rx="6.0" ry="6.0" x="648.0" y="674.0" width="52.0" height="52.0" class="key"/>
<text x="674.0" y="700.0" class="tap">SCRL</text>
<rect rx="6.0" ry="6.0" x="704.0" y="674.0" width="52.0" height="52.0" class="key"/>
<text x="730.0" y="700.0" class="tap">⌘⌥1</text>
<rect rx="6.0" ry="6.0" x="760.0" y="674.0" width="52.0" height="52.0" class="key"/>
<text x="786.0" y="700.0" class="tap">⌘⌥2</text>
<rect rx="6.0" ry="6.0" x="816.0" y="674.0" width="52.0" height="52.0" class="key"/>
<text x="842.0" y="700.0" class="tap">⌘⌥3</text>
<rect rx="6.0" ry="6.0" x="872.0" y="674.0" width="52.0" height="52.0" class="key"/>
<text x="898.0" y="700.0" class="tap">⌘⌥4</text>
<rect rx="6.0" ry="6.0" x="32.0" y="730.0" width="52.0" height="52.0" class="key"/>
<rect rx="6.0" ry="6.0" x="88.0" y="730.0" width="52.0" height="52.0" class="key"/>
<rect rx="6.0" ry="6.0" x="144.0" y="730.0" width="52.0" height="52.0" class="key"/>
<rect rx="6.0" ry="6.0" x="200.0" y="730.0" width="52.0" height="52.0" class="key"/>
<rect rx="6.0" ry="6.0" x="256.0" y="730.0" width="52.0" height="52.0" class="key"/>
<rect rx="6.0" ry="6.0" x="648.0" y="730.0" width="52.0" height="52.0" class="key"/>
<text x="674.0" y="756.0" class="tap">PAUS</text>
<rect rx="6.0" ry="6.0" x="704.0" y="730.0" width="52.0" height="52.0" class="key"/>
<text x="730.0" y="756.0" class="tap">⌘⇧1</text>
<rect rx="6.0" ry="6.0" x="760.0" y="730.0" width="52.0" height="52.0" class="key"/>
<text x="786.0" y="756.0" class="tap">⌘⇧2</text>
<rect rx="6.0" ry="6.0" x="816.0" y="730.0" width="52.0" height="52.0" class="key"/>
<text x="842.0" y="756.0" class="tap">⌘⇧3</text>
<rect rx="6.0" ry="6.0" x="872.0" y="730.0" width="52.0" height="52.0" class="key"/>
<text x="898.0" y="756.0" class="tap">⌘⇧4</text>
<rect rx="6.0" ry="6.0" x="256.0" y="786.0" width="52.0" height="52.0" class="key"/>
<rect rx="6.0" ry="6.0" x="312.0" y="786.0" width="52.0" height="52.0" class="key"/>
<rect rx="6.0" ry="6.0" x="368.0" y="786.0" width="52.0" height="52.0" class="trans key"/>
<text x="394.0" y="812.0" class="trans tap">▽</text>
<rect rx="6.0" ry="6.0" x="536.0" y="786.0" width="52.0" height="52.0" class="key"/>
<rect rx="6.0" ry="6.0" x="592.0" y="786.0" width="52.0" height="52.0" class="key"/>
<text x="618.0" y="812.0" class="tap">TAB</text>
</g>
<g class="layer-Med">
<text x="30.0" y="868.0" class="label">Med:</text>
<rect rx="6.0" ry="6.0" x="32.0" y="898.0" width="52.0" height="52.0" class="key"/>
<rect rx="6.0" ry="6.0" x="88.0" y="898.0" width="52.0" height="52.0" class="key"/>
<text x="114.0" y="924.0" class="tap">
<tspan x="114.0" dy="-0.6em">RGB</tspan><tspan x="114.0" dy="1.2em">RMOD</tspan></text>
<rect rx="6.0" ry="6.0" x="144.0" y="898.0" width="52.0" height="52.0" class="key"/>
<text x="170.0" y="924.0" class="tap">
<tspan x="170.0" dy="-0.6em">RGB</tspan><tspan x="170.0" dy="1.2em">TOG</tspan></text>
<rect rx="6.0" ry="6.0" x="200.0" y="898.0" width="52.0" height="52.0" class="key"/>
<text x="226.0" y="924.0" class="tap">
<tspan x="226.0" dy="-0.6em">RGB</tspan><tspan x="226.0" dy="1.2em">MOD</tspan></text>
<rect rx="6.0" ry="6.0" x="256.0" y="898.0" width="52.0" height="52.0" class="key"/>
<rect rx="6.0" ry="6.0" x="648.0" y="898.0" width="52.0" height="52.0" class="key"/>
<rect rx="6.0" ry="6.0" x="704.0" y="898.0" width="52.0" height="52.0" class="key"/>
<text x="730.0" y="924.0" class="tap">V</text>
<rect rx="6.0" ry="6.0" x="760.0" y="898.0" width="52.0" height="52.0" class="key"/>
<text x="786.0" y="924.0" class="tap">[</text>
<rect rx="6.0" ry="6.0" x="816.0" y="898.0" width="52.0" height="52.0" class="key"/>
<text x="842.0" y="924.0" class="tap">]</text>
<rect rx="6.0" ry="6.0" x="872.0" y="898.0" width="52.0" height="52.0" class="key"/>
<text x="898.0" y="924.0" class="tap">/</text>
<rect rx="6.0" ry="6.0" x="32.0" y="954.0" width="52.0" height="52.0" class="key"/>
<text x="58.0" y="980.0" class="tap">⇤</text>
<rect rx="6.0" ry="6.0" x="88.0" y="954.0" width="52.0" height="52.0" class="key"/>
<text x="114.0" y="980.0" class="tap">🔉</text>
<rect rx="6.0" ry="6.0" x="144.0" y="954.0" width="52.0" height="52.0" class="key"/>
<text x="170.0" y="980.0" class="tap">🔇</text>
<rect rx="6.0" ry="6.0" x="200.0" y="954.0" width="52.0" height="52.0" class="key"/>
<text x="226.0" y="980.0" class="tap">🔊</text>
<rect rx="6.0" ry="6.0" x="256.0" y="954.0" width="52.0" height="52.0" class="key"/>
<text x="282.0" y="980.0" class="tap">⇥</text>
<rect rx="6.0" ry="6.0" x="648.0" y="954.0" width="52.0" height="52.0" class="key"/>
<text x="674.0" y="980.0" class="tap">
<tspan x="674.0" dy="-0.6em">Caps</tspan><tspan x="674.0" dy="1.2em">Word</tspan></text>
<rect rx="6.0" ry="6.0" x="704.0" y="954.0" width="52.0" height="52.0" class="key"/>
<text x="730.0" y="980.0" class="tap">H</text>
<rect rx="6.0" ry="6.0" x="760.0" y="954.0" width="52.0" height="52.0" class="key"/>
<text x="786.0" y="980.0" class="tap">J</text>
<rect rx="6.0" ry="6.0" x="816.0" y="954.0" width="52.0" height="52.0" class="key"/>
<text x="842.0" y="980.0" class="tap">K</text>
<rect rx="6.0" ry="6.0" x="872.0" y="954.0" width="52.0" height="52.0" class="key"/>
<text x="898.0" y="980.0" class="tap">L</text>
<rect rx="6.0" ry="6.0" x="32.0" y="1010.0" width="52.0" height="52.0" class="key"/>
<rect rx="6.0" ry="6.0" x="88.0" y="1010.0" width="52.0" height="52.0" class="key"/>
<rect rx="6.0" ry="6.0" x="144.0" y="1010.0" width="52.0" height="52.0" class="key"/>
<rect rx="6.0" ry="6.0" x="200.0" y="1010.0" width="52.0" height="52.0" class="key"/>
<text x="226.0" y="1036.0" class="tap">
<tspan x="226.0" dy="-0.6em">EE</tspan><tspan x="226.0" dy="1.2em">CLR</tspan></text>
<rect rx="6.0" ry="6.0" x="256.0" y="1010.0" width="52.0" height="52.0" class="key"/>
<text x="282.0" y="1036.0" class="tap">
<tspan x="282.0" dy="-0.6em">QK</tspan><tspan x="282.0" dy="1.2em">BOOT</tspan></text>
<rect rx="6.0" ry="6.0" x="648.0" y="1010.0" width="52.0" height="52.0" class="key"/>
<text x="674.0" y="1036.0" class="tap">
<tspan x="674.0" dy="-0.6em">QK</tspan><tspan x="674.0" dy="1.2em">BOOT</tspan></text>
<rect rx="6.0" ry="6.0" x="704.0" y="1010.0" width="52.0" height="52.0" class="key"/>
<text x="730.0" y="1036.0" class="tap">HOME</text>
<rect rx="6.0" ry="6.0" x="760.0" y="1010.0" width="52.0" height="52.0" class="key"/>
<text x="786.0" y="1036.0" class="tap">PGDN</text>
<rect rx="6.0" ry="6.0" x="816.0" y="1010.0" width="52.0" height="52.0" class="key"/>
<text x="842.0" y="1036.0" class="tap">PGUP</text>
<rect rx="6.0" ry="6.0" x="872.0" y="1010.0" width="52.0" height="52.0" class="key"/>
<text x="898.0" y="1036.0" class="tap">END</text>
<rect rx="6.0" ry="6.0" x="256.0" y="1066.0" width="52.0" height="52.0" class="trans key"/>
<text x="282.0" y="1092.0" class="trans tap">▽</text>
<rect rx="6.0" ry="6.0" x="312.0" y="1066.0" width="52.0" height="52.0" class="key"/>
<rect rx="6.0" ry="6.0" x="368.0" y="1066.0" width="52.0" height="52.0" class="key"/>
<rect rx="6.0" ry="6.0" x="536.0" y="1066.0" width="52.0" height="52.0" class="key"/>
<rect rx="6.0" ry="6.0" x="592.0" y="1066.0" width="52.0" height="52.0" class="key"/>
<text x="618.0" y="1092.0" class="tap">TAB</text>
</g>
<g class="layer-Nav">
<text x="30.0" y="1148.0" class="label">Nav:</text>
<rect rx="6.0" ry="6.0" x="32.0" y="1178.0" width="52.0" height="52.0" class="key"/>
<rect rx="6.0" ry="6.0" x="88.0" y="1178.0" width="52.0" height="52.0" class="key"/>
<rect rx="6.0" ry="6.0" x="144.0" y="1178.0" width="52.0" height="52.0" class="key"/>
<rect rx="6.0" ry="6.0" x="200.0" y="1178.0" width="52.0" height="52.0" class="key"/>
<rect rx="6.0" ry="6.0" x="256.0" y="1178.0" width="52.0" height="52.0" class="key"/>
<rect rx="6.0" ry="6.0" x="648.0" y="1178.0" width="52.0" height="52.0" class="key"/>
<rect rx="6.0" ry="6.0" x="704.0" y="1178.0" width="52.0" height="52.0" class="key"/>
<rect rx="6.0" ry="6.0" x="760.0" y="1178.0" width="52.0" height="52.0" class="key"/>
<text x="786.0" y="1204.0" class="tap">(</text>
<rect rx="6.0" ry="6.0" x="816.0" y="1178.0" width="52.0" height="52.0" class="key"/>
<text x="842.0" y="1204.0" class="tap">)</text>
<rect rx="6.0" ry="6.0" x="872.0" y="1178.0" width="52.0" height="52.0" class="key"/>
<text x="898.0" y="1204.0" class="tap">|</text>
<rect rx="6.0" ry="6.0" x="32.0" y="1234.0" width="52.0" height="52.0" class="key"/>
<text x="58.0" y="1260.0" class="tap">⌘</text>
<rect rx="6.0" ry="6.0" x="88.0" y="1234.0" width="52.0" height="52.0" class="key"/>
<text x="114.0" y="1260.0" class="tap">⌥</text>
<rect rx="6.0" ry="6.0" x="144.0" y="1234.0" width="52.0" height="52.0" class="key"/>
<text x="170.0" y="1260.0" class="tap">⌃</text>
<rect rx="6.0" ry="6.0" x="200.0" y="1234.0" width="52.0" height="52.0" class="key"/>
<text x="226.0" y="1260.0" class="tap">⇧</text>
<rect rx="6.0" ry="6.0" x="256.0" y="1234.0" width="52.0" height="52.0" class="key"/>
<rect rx="6.0" ry="6.0" x="648.0" y="1234.0" width="52.0" height="52.0" class="key"/>
<text x="674.0" y="1260.0" class="tap">⇪</text>
<rect rx="6.0" ry="6.0" x="704.0" y="1234.0" width="52.0" height="52.0" class="key"/>
<text x="730.0" y="1260.0" class="tap">◁</text>
<rect rx="6.0" ry="6.0" x="760.0" y="1234.0" width="52.0" height="52.0" class="key"/>
<text x="786.0" y="1260.0" class="tap">▽</text>
<rect rx="6.0" ry="6.0" x="816.0" y="1234.0" width="52.0" height="52.0" class="key"/>
<text x="842.0" y="1260.0" class="tap">△</text>
<rect rx="6.0" ry="6.0" x="872.0" y="1234.0" width="52.0" height="52.0" class="key"/>
<text x="898.0" y="1260.0" class="tap">▷</text>
<rect rx="6.0" ry="6.0" x="32.0" y="1290.0" width="52.0" height="52.0" class="key"/>
<rect rx="6.0" ry="6.0" x="88.0" y="1290.0" width="52.0" height="52.0" class="key"/>
<rect rx="6.0" ry="6.0" x="144.0" y="1290.0" width="52.0" height="52.0" class="key"/>
<rect rx="6.0" ry="6.0" x="200.0" y="1290.0" width="52.0" height="52.0" class="key"/>
<rect rx="6.0" ry="6.0" x="256.0" y="1290.0" width="52.0" height="52.0" class="key"/>
<rect rx="6.0" ry="6.0" x="648.0" y="1290.0" width="52.0" height="52.0" class="key"/>
<text x="674.0" y="1316.0" class="tap">RDO</text>
<rect rx="6.0" ry="6.0" x="704.0" y="1290.0" width="52.0" height="52.0" class="key"/>
<text x="730.0" y="1316.0" class="tap">PST</text>
<rect rx="6.0" ry="6.0" x="760.0" y="1290.0" width="52.0" height="52.0" class="key"/>
<text x="786.0" y="1316.0" class="tap">CPY</text>
<rect rx="6.0" ry="6.0" x="816.0" y="1290.0" width="52.0" height="52.0" class="key"/>
<text x="842.0" y="1316.0" class="tap">CUT</text>
<rect rx="6.0" ry="6.0" x="872.0" y="1290.0" width="52.0" height="52.0" class="key"/>
<text x="898.0" y="1316.0" class="tap">UND</text>
<rect rx="6.0" ry="6.0" x="256.0" y="1346.0" width="52.0" height="52.0" class="key"/>
<rect rx="6.0" ry="6.0" x="312.0" y="1346.0" width="52.0" height="52.0" class="trans key"/>
<text x="338.0" y="1372.0" class="trans tap">▽</text>
<rect rx="6.0" ry="6.0" x="368.0" y="1346.0" width="52.0" height="52.0" class="key"/>
<rect rx="6.0" ry="6.0" x="536.0" y="1346.0" width="52.0" height="52.0" class="key"/>
<rect rx="6.0" ry="6.0" x="592.0" y="1346.0" width="52.0" height="52.0" class="key"/>
<text x="618.0" y="1372.0" class="tap">TAB</text>
</g>
<g class="layer-Num">
<text x="30.0" y="1428.0" class="label">Num:</text>
<rect rx="6.0" ry="6.0" x="32.0" y="1458.0" width="52.0" height="52.0" class="key"/>
<text x="58.0" y="1484.0" class="tap">[</text>
<rect rx="6.0" ry="6.0" x="88.0" y="1458.0" width="52.0" height="52.0" class="key"/>
<text x="114.0" y="1484.0" class="tap">7</text>
<rect rx="6.0" ry="6.0" x="144.0" y="1458.0" width="52.0" height="52.0" class="key"/>
<text x="170.0" y="1484.0" class="tap">8</text>
<rect rx="6.0" ry="6.0" x="200.0" y="1458.0" width="52.0" height="52.0" class="key"/>
<text x="226.0" y="1484.0" class="tap">9</text>
<rect rx="6.0" ry="6.0" x="256.0" y="1458.0" width="52.0" height="52.0" class="key"/>
<text x="282.0" y="1484.0" class="tap">]</text>
<rect rx="6.0" ry="6.0" x="648.0" y="1458.0" width="52.0" height="52.0" class="key"/>
<rect rx="6.0" ry="6.0" x="704.0" y="1458.0" width="52.0" height="52.0" class="key"/>
<rect rx="6.0" ry="6.0" x="760.0" y="1458.0" width="52.0" height="52.0" class="key"/>
<rect rx="6.0" ry="6.0" x="816.0" y="1458.0" width="52.0" height="52.0" class="key"/>
<rect rx="6.0" ry="6.0" x="872.0" y="1458.0" width="52.0" height="52.0" class="key"/>
<rect rx="6.0" ry="6.0" x="32.0" y="1514.0" width="52.0" height="52.0" class="key"/>
<text x="58.0" y="1540.0" class="tap">;</text>
<text x="58.0" y="1516.0" class="shifted">:</text>
<rect rx="6.0" ry="6.0" x="88.0" y="1514.0" width="52.0" height="52.0" class="key"/>
<text x="114.0" y="1540.0" class="tap">4</text>
<rect rx="6.0" ry="6.0" x="144.0" y="1514.0" width="52.0" height="52.0" class="key"/>
<text x="170.0" y="1540.0" class="tap">5</text>
<rect rx="6.0" ry="6.0" x="200.0" y="1514.0" width="52.0" height="52.0" class="key"/>
<text x="226.0" y="1540.0" class="tap">6</text>
<rect rx="6.0" ry="6.0" x="256.0" y="1514.0" width="52.0" height="52.0" class="key"/>
<text x="282.0" y="1540.0" class="tap">=</text>
<rect rx="6.0" ry="6.0" x="648.0" y="1514.0" width="52.0" height="52.0" class="key"/>
<rect rx="6.0" ry="6.0" x="704.0" y="1514.0" width="52.0" height="52.0" class="key"/>
<text x="730.0" y="1540.0" class="tap">⇧</text>
<rect rx="6.0" ry="6.0" x="760.0" y="1514.0" width="52.0" height="52.0" class="key"/>
<text x="786.0" y="1540.0" class="tap">⌃</text>
<rect rx="6.0" ry="6.0" x="816.0" y="1514.0" width="52.0" height="52.0" class="key"/>
<text x="842.0" y="1540.0" class="tap">⌥</text>
<rect rx="6.0" ry="6.0" x="872.0" y="1514.0" width="52.0" height="52.0" class="key"/>
<text x="898.0" y="1540.0" class="tap">⌘</text>
<rect rx="6.0" ry="6.0" x="32.0" y="1570.0" width="52.0" height="52.0" class="key"/>
<text x="58.0" y="1596.0" class="tap">`</text>
<rect rx="6.0" ry="6.0" x="88.0" y="1570.0" width="52.0" height="52.0" class="key"/>
<text x="114.0" y="1596.0" class="tap">1</text>
<rect rx="6.0" ry="6.0" x="144.0" y="1570.0" width="52.0" height="52.0" class="key"/>
<text x="170.0" y="1596.0" class="tap">2</text>
<rect rx="6.0" ry="6.0" x="200.0" y="1570.0" width="52.0" height="52.0" class="key"/>
<text x="226.0" y="1596.0" class="tap">3</text>
<rect rx="6.0" ry="6.0" x="256.0" y="1570.0" width="52.0" height="52.0" class="key"/>
<text x="282.0" y="1596.0" class="tap">\</text>
<rect rx="6.0" ry="6.0" x="648.0" y="1570.0" width="52.0" height="52.0" class="key"/>
<rect rx="6.0" ry="6.0" x="704.0" y="1570.0" width="52.0" height="52.0" class="key"/>
<rect rx="6.0" ry="6.0" x="760.0" y="1570.0" width="52.0" height="52.0" class="key"/>
<rect rx="6.0" ry="6.0" x="816.0" y="1570.0" width="52.0" height="52.0" class="key"/>
<rect rx="6.0" ry="6.0" x="872.0" y="1570.0" width="52.0" height="52.0" class="key"/>
<rect rx="6.0" ry="6.0" x="256.0" y="1626.0" width="52.0" height="52.0" class="key"/>
<text x="282.0" y="1652.0" class="tap">.</text>
<text x="282.0" y="1628.0" class="shifted">&gt;</text>
<rect rx="6.0" ry="6.0" x="312.0" y="1626.0" width="52.0" height="52.0" class="key"/>
<text x="338.0" y="1652.0" class="tap">0</text>
<rect rx="6.0" ry="6.0" x="368.0" y="1626.0" width="52.0" height="52.0" class="key"/>
<text x="394.0" y="1652.0" class="tap">-</text>
<rect rx="6.0" ry="6.0" x="536.0" y="1626.0" width="52.0" height="52.0" class="key"/>
<rect rx="6.0" ry="6.0" x="592.0" y="1626.0" width="52.0" height="52.0" class="trans key"/>
<text x="618.0" y="1652.0" class="trans tap">▽</text>
</g>
<g class="layer-Sym">
<text x="30.0" y="1708.0" class="label">Sym:</text>
<rect rx="6.0" ry="6.0" x="32.0" y="1738.0" width="52.0" height="52.0" class="key"/>
<text x="58.0" y="1764.0" class="tap">{</text>
<rect rx="6.0" ry="6.0" x="88.0" y="1738.0" width="52.0" height="52.0" class="key"/>
<text x="114.0" y="1764.0" class="tap">&amp;</text>
<rect rx="6.0" ry="6.0" x="144.0" y="1738.0" width="52.0" height="52.0" class="key"/>
<text x="170.0" y="1764.0" class="tap">*</text>
<rect rx="6.0" ry="6.0" x="200.0" y="1738.0" width="52.0" height="52.0" class="key"/>
<text x="226.0" y="1764.0" class="tap">(</text>
<rect rx="6.0" ry="6.0" x="256.0" y="1738.0" width="52.0" height="52.0" class="key"/>
<text x="282.0" y="1764.0" class="tap">}</text>
<rect rx="6.0" ry="6.0" x="648.0" y="1738.0" width="52.0" height="52.0" class="key"/>
<rect rx="6.0" ry="6.0" x="704.0" y="1738.0" width="52.0" height="52.0" class="key"/>
<rect rx="6.0" ry="6.0" x="760.0" y="1738.0" width="52.0" height="52.0" class="key"/>
<rect rx="6.0" ry="6.0" x="816.0" y="1738.0" width="52.0" height="52.0" class="key"/>
<rect rx="6.0" ry="6.0" x="872.0" y="1738.0" width="52.0" height="52.0" class="key"/>
<rect rx="6.0" ry="6.0" x="32.0" y="1794.0" width="52.0" height="52.0" class="key"/>
<text x="58.0" y="1820.0" class="tap">:</text>
<rect rx="6.0" ry="6.0" x="88.0" y="1794.0" width="52.0" height="52.0" class="key"/>
<text x="114.0" y="1820.0" class="tap">$</text>
<rect rx="6.0" ry="6.0" x="144.0" y="1794.0" width="52.0" height="52.0" class="key"/>
<text x="170.0" y="1820.0" class="tap">%</text>
<rect rx="6.0" ry="6.0" x="200.0" y="1794.0" width="52.0" height="52.0" class="key"/>
<text x="226.0" y="1820.0" class="tap">^</text>
<rect rx="6.0" ry="6.0" x="256.0" y="1794.0" width="52.0" height="52.0" class="key"/>
<text x="282.0" y="1820.0" class="tap">+</text>
<rect rx="6.0" ry="6.0" x="648.0" y="1794.0" width="52.0" height="52.0" class="key"/>
<rect rx="6.0" ry="6.0" x="704.0" y="1794.0" width="52.0" height="52.0" class="key"/>
<text x="730.0" y="1820.0" class="tap">⇧</text>
<rect rx="6.0" ry="6.0" x="760.0" y="1794.0" width="52.0" height="52.0" class="key"/>
<text x="786.0" y="1820.0" class="tap">⌃</text>
<rect rx="6.0" ry="6.0" x="816.0" y="1794.0" width="52.0" height="52.0" class="key"/>
<text x="842.0" y="1820.0" class="tap">⌥</text>
<rect rx="6.0" ry="6.0" x="872.0" y="1794.0" width="52.0" height="52.0" class="key"/>
<text x="898.0" y="1820.0" class="tap">⌘</text>
<rect rx="6.0" ry="6.0" x="32.0" y="1850.0" width="52.0" height="52.0" class="key"/>
<text x="58.0" y="1876.0" class="tap">~</text>
<rect rx="6.0" ry="6.0" x="88.0" y="1850.0" width="52.0" height="52.0" class="key"/>
<text x="114.0" y="1876.0" class="tap">!</text>
<rect rx="6.0" ry="6.0" x="144.0" y="1850.0" width="52.0" height="52.0" class="key"/>
<text x="170.0" y="1876.0" class="tap">@</text>
<rect rx="6.0" ry="6.0" x="200.0" y="1850.0" width="52.0" height="52.0" class="key"/>
<text x="226.0" y="1876.0" class="tap">#</text>
<rect rx="6.0" ry="6.0" x="256.0" y="1850.0" width="52.0" height="52.0" class="key"/>
<text x="282.0" y="1876.0" class="tap">|</text>
<rect rx="6.0" ry="6.0" x="648.0" y="1850.0" width="52.0" height="52.0" class="key"/>
<rect rx="6.0" ry="6.0" x="704.0" y="1850.0" width="52.0" height="52.0" class="key"/>
<rect rx="6.0" ry="6.0" x="760.0" y="1850.0" width="52.0" height="52.0" class="key"/>
<rect rx="6.0" ry="6.0" x="816.0" y="1850.0" width="52.0" height="52.0" class="key"/>
<rect rx="6.0" ry="6.0" x="872.0" y="1850.0" width="52.0" height="52.0" class="key"/>
<rect rx="6.0" ry="6.0" x="256.0" y="1906.0" width="52.0" height="52.0" class="key"/>
<text x="282.0" y="1932.0" class="tap">(</text>
<rect rx="6.0" ry="6.0" x="312.0" y="1906.0" width="52.0" height="52.0" class="key"/>
<text x="338.0" y="1932.0" class="tap">)</text>
<rect rx="6.0" ry="6.0" x="368.0" y="1906.0" width="52.0" height="52.0" class="key"/>
<text x="394.0" y="1932.0" class="tap">_</text>
<rect rx="6.0" ry="6.0" x="536.0" y="1906.0" width="52.0" height="52.0" class="trans key"/>
<text x="562.0" y="1932.0" class="trans tap">▽</text>
<rect rx="6.0" ry="6.0" x="592.0" y="1906.0" width="52.0" height="52.0" class="key"/>
</g>
</svg>
